HIERARCHY
ROOT Hips
{
	OFFSET 0.000000 0.000000 0.000000 
	CHANNELS 6 Xposition Yposition Zposition Zrotation Yrotation Xrotation
	JOINT LeftUpLeg
	{
		OFFSET 1.363060 -1.794630 0.839290 
		CHANNELS 3 Zrotation Yrotation Xrotation
		JOINT LeftLeg
		{
			OFFSET 2.448110 -6.726130 0.000000 
			CHANNELS 3 Zrotation Yrotation Xrotation
			JOINT LeftFoot
			{
				OFFSET 2.562200 -7.039590 0.000000 
				CHANNELS 3 Zrotation Yrotation Xrotation
				JOINT LeftToeBase
				{
					OFFSET 0.157640 -0.433110 2.322550 
					CHANNELS 3 Zrotation Yrotation Xrotation
					End Site
					{
						OFFSET 0.000000 0.000000 0.000000 
					}
				}
			}
		}
	}
	JOINT RightUpLeg
	{
		OFFSET -1.305520 -1.794630 0.839290 
		CHANNELS 3 Zrotation Yrotation Xrotation
		JOINT RightLeg
		{
			OFFSET -2.542530 -6.985550 0.000000 
			CHANNELS 3 Zrotation Yrotation Xrotation
			JOINT RightFoot
			{
				OFFSET -2.568260 -7.056230 0.000000 
				CHANNELS 3 Zrotation Yrotation Xrotation
				JOINT RightToeBase
				{
					OFFSET -0.164730 -0.452590 2.363150 
					CHANNELS 3 Zrotation Yrotation Xrotation
					End Site
					{
						OFFSET 0.000000 0.000000 0.000000 
					}
				}
			}
		}
	}
	JOINT Spine
	{
		OFFSET 0.028270 2.035590 -0.193380 
		CHANNELS 3 Zrotation Yrotation Xrotation
		JOINT Spine1
		{
			OFFSET 0.056720 2.048850 -0.042750 
			CHANNELS 3 Zrotation Yrotation Xrotation
			JOINT Neck1
			{
				OFFSET -0.054170 1.746240 0.172020 
				CHANNELS 3 Zrotation Yrotation Xrotation
				JOINT Head
				{
					OFFSET 0.104070 1.761360 -0.123970 
					CHANNELS 3 Zrotation Yrotation Xrotation
					End Site
					{
						OFFSET 0.000000 0.000000 0.000000 
					}
				}
			}
			JOINT LeftArm
			{
				OFFSET 3.362410 1.200890 -0.311210 
				CHANNELS 3 Zrotation Yrotation Xrotation
				JOINT LeftForeArm
				{
					OFFSET 4.983000 -0.000000 -0.000000 
					CHANNELS 3 Zrotation Yrotation Xrotation
					JOINT LeftHand
					{
						OFFSET 3.483560 -0.000000 -0.000000 
						CHANNELS 3 Zrotation Yrotation Xrotation
						JOINT LeftHandIndex1
						{
							OFFSET 0.715260 -0.000000 -0.000000 
							CHANNELS 3 Zrotation Yrotation Xrotation
							End Site
							{
								OFFSET 0.000000 0.000000 0.000000 
							}
						}
					}
				}
			}
			JOINT RightArm
			{
				OFFSET -3.136600 1.374050 -0.404650 
				CHANNELS 3 Zrotation Yrotation Xrotation
				JOINT RightForeArm
				{
					OFFSET -5.241900 -0.000000 -0.000000 
					CHANNELS 3 Zrotation Yrotation Xrotation
					JOINT RightHand
					{
						OFFSET -3.444170 -0.000000 -0.000000 
						CHANNELS 3 Zrotation Yrotation Xrotation
						JOINT RightHandIndex1
						{
							OFFSET -0.622530 -0.000000 -0.000000 
							CHANNELS 3 Zrotation Yrotation Xrotation
							End Site
							{
								OFFSET 0.000000 0.000000 0.000000 
							}
						}
					}
				}
			}
		}
	}
}
MOTION
Frames: 7
Frame Time: 0.041667
0.334398 17.879110 0.266942 -1.107994 0.129073 -2.277832 -19.049826 -9.768997 12.316754 -2.123648 -1.066786 2.469021 -2.231122 10.446923 0.281111 0.395700 -4.039100 -11.186600 23.215524 9.438551 9.905723 0.428846 -2.532913 9.595940 2.031784 -11.743369 -5.829228 -0.382700 3.972700 -11.000000 1.445061 0.758162 3.083181 -0.491083 0.559764 -6.687306 7.606982 -17.167684 15.246695 4.287300 -8.840100 9.123900 -87.136814 -6.251465 56.924639 20.398406 -25.787674 -4.164067 0.584846 0.736240 -4.949155 -7.125000 0.000000 0.000000 76.724481 1.713759 73.805048 -61.093932 54.228370 -30.936080 -1.309207 0.764332 9.249147 7.125000 0.000000 0.000000 
0.327852 17.867793 0.259730 -1.074309 -0.853994 -2.783340 -19.077288 -8.605485 12.709609 -2.100192 -1.083921 2.535149 -2.205313 10.309465 0.044217 0.402500 -4.072900 -11.281800 23.331296 10.337426 10.349520 0.390548 -2.712404 10.110926 1.994120 -11.591884 -6.117239 -0.248100 3.205200 -8.850700 1.488363 1.198838 3.204577 -0.420284 0.782622 -6.937304 7.580265 -17.093443 15.347325 4.273000 -8.802500 9.154900 -87.263869 -6.070581 56.028458 20.150167 -25.447450 -4.043910 0.574498 0.749830 -5.280543 -7.125000 0.000000 0.000000 76.987704 1.472779 72.993963 -59.925796 53.925555 -29.974913 -1.313706 0.727511 8.805239 7.125000 0.000000 0.000000 
0.321972 17.863245 0.255070 -1.075535 -1.384896 -3.082777 -19.054597 -7.979130 12.935912 -2.086619 -1.093824 2.571860 -2.189276 10.225284 -0.104151 0.402900 -4.075000 -11.287600 23.429220 10.774630 10.700441 0.385502 -2.729017 10.169436 2.018139 -11.693049 -6.022343 -0.287600 3.449000 -9.531500 1.517180 1.442293 3.284626 -0.376350 0.906412 -7.075434 7.510552 -16.997221 15.453451 4.234600 -8.751900 9.182900 -87.398139 -5.878508 54.950986 19.963868 -25.185328 -3.950391 0.551851 0.774820 -5.484611 -7.125000 0.000000 0.000000 77.312026 1.298033 72.040886 -58.553167 53.541557 -28.852198 -1.304810 0.695779 8.677663 7.125000 0.000000 0.000000 
0.319753 17.865242 0.252075 -1.113406 -1.306599 -3.078718 -19.010278 -8.068902 12.920057 -2.087799 -1.093395 2.568291 -2.194747 10.247459 -0.072636 0.406900 -4.095200 -11.344600 23.489921 10.745503 10.543806 0.370081 -2.797977 10.335852 2.053653 -11.856138 -5.843818 -0.465900 4.378300 -12.143400 1.518565 1.396120 3.280320 -0.381203 0.882612 -7.097782 7.487399 -16.886294 15.513106 4.221800 -8.693000 9.198900 -87.513831 -5.668122 53.881048 19.866989 -25.040774 -3.897514 0.531180 0.817536 -5.718246 -7.125000 0.000000 0.000000 77.697190 1.105086 70.858490 -57.142603 53.120185 -27.708941 -1.283415 0.688453 8.910085 7.125000 0.000000 0.000000 
0.322749 17.866129 0.252740 -1.078333 -1.142990 -3.031547 -19.070019 -8.245862 12.899358 -2.091925 -1.091623 2.557764 -2.196815 10.261623 -0.028268 0.408200 -4.101700 -11.362800 23.415190 10.583788 10.506543 0.379364 -2.750037 10.203567 2.072084 -11.928746 -5.711334 -0.563300 4.807200 -13.359500 1.487651 1.311478 3.261362 -0.409643 0.841281 -7.084741 7.536723 -16.808672 15.557856 4.241600 -8.649400 9.222000 -87.625364 -5.431600 52.936840 19.754766 -24.876777 -3.840679 0.522562 0.863477 -5.930518 -7.125000 0.000000 0.000000 78.057947 0.808178 69.688223 -55.892069 52.714458 -26.697852 -1.270458 0.655157 9.057464 7.125000 0.000000 0.000000 
0.327076 17.867239 0.256513 -0.918030 -1.071085 -2.940609 -19.262767 -8.327862 12.846543 -2.096598 -1.088146 2.546958 -2.195111 10.268556 -0.020242 0.384300 -3.981200 -11.023900 23.186473 10.502941 10.525937 0.398446 -2.655460 9.952725 2.087646 -11.980495 -5.586568 -0.575500 4.857900 -13.503800 1.409726 1.264345 3.230612 -0.435593 0.823264 -7.041701 7.565850 -16.725440 15.560878 4.257700 -8.605500 9.214500 -87.761838 -5.179283 51.690012 19.536110 -24.565470 -3.732793 0.521036 0.867291 -5.903394 -7.125000 0.000000 0.000000 78.430819 0.498640 68.575528 -54.591084 52.260908 -25.654250 -1.263255 0.609660 9.176227 7.125000 0.000000 0.000000 
0.343829 17.877002 0.283695 -0.951517 0.624207 -2.331972 -19.306888 -10.220306 12.517464 -2.134417 -1.070833 2.448888 -2.237030 10.484241 0.261619 0.402200 -4.071600 -11.278200 23.023642 8.940854 9.830282 0.411318 -2.587406 9.759391 2.057227 -11.860612 -5.817854 -0.522700 4.633500 -12.866200 1.308525 0.470536 3.116828 -0.601977 0.420276 -6.546920 7.569020 -16.624175 15.515221 4.265400 -8.552700 9.184900 -87.916317 -5.026119 50.221913 19.244109 -24.153504 -3.591096 0.515834 0.840118 -5.843271 -7.125000 0.000000 0.000000 78.758687 0.347091 67.461616 -53.167625 51.730799 -24.524179 -1.247926 0.582765 9.271765 7.125000 0.000000 0.000000 
